<svg width="2077" height="913" viewBox="0 0 2077 913" fill="none" xmlns="http://www.w3.org/2000/svg">
<path d="M784 473C659.5 485 662.5 665.5 578 662" stroke="#2079BD" stroke-width="10"/>
<path d="M784 473C652 482 779 259 578 255" stroke="#2079BD" stroke-width="10"/>
<path d="M1500 460L1295 460" stroke="#2079BD" stroke-width="10"/>
<rect x="72" y="115" width="502.222" height="279" rx="16" fill="#D9D9D9" stroke="#2079BD" stroke-width="8"/>
<path d="M235.367 268L227.015 242.8H231.875L239.327 265.588H236.915L244.655 242.8H248.975L256.499 265.588H254.159L261.791 242.8H266.255L257.903 268H252.935L246.059 247.444H247.355L240.371 268H235.367ZM276.188 253.276H288.716V257.128H276.188V253.276ZM276.548 264.076H290.768V268H271.868V242.8H290.264V246.724H276.548V264.076ZM297.785 268V242.8H309.593C312.617 242.8 314.921 243.4 316.505 244.6C318.089 245.776 318.881 247.36 318.881 249.352C318.881 250.696 318.569 251.848 317.945 252.808C317.321 253.744 316.481 254.476 315.425 255.004C314.393 255.508 313.265 255.76 312.041 255.76L312.689 254.464C314.105 254.464 315.377 254.728 316.505 255.256C317.633 255.76 318.521 256.504 319.169 257.488C319.841 258.472 320.177 259.696 320.177 261.16C320.177 263.32 319.349 265 317.693 266.2C316.037 267.4 313.577 268 310.313 268H297.785ZM302.465 264.328H310.025C311.777 264.328 313.121 264.04 314.057 263.464C314.993 262.888 315.461 261.964 315.461 260.692C315.461 259.444 314.993 258.532 314.057 257.956C313.121 257.356 311.777 257.056 310.025 257.056H302.105V253.42H309.089C310.721 253.42 311.969 253.132 312.833 252.556C313.721 251.98 314.165 251.116 314.165 249.964C314.165 248.788 313.721 247.912 312.833 247.336C311.969 246.76 310.721 246.472 309.089 246.472H302.465V264.328ZM325.568 259.864V256.12H335.468V259.864H325.568ZM338.321 268L349.661 242.8H354.269L365.645 268H360.749L350.993 245.284H352.865L343.145 268H338.321ZM343.541 262.168L344.801 258.496H358.409L359.669 262.168H343.541ZM370.65 268V242.8H381.018C383.25 242.8 385.158 243.16 386.742 243.88C388.35 244.6 389.586 245.632 390.45 246.976C391.314 248.32 391.746 249.916 391.746 251.764C391.746 253.612 391.314 255.208 390.45 256.552C389.586 257.896 388.35 258.928 386.742 259.648C385.158 260.368 383.25 260.728 381.018 260.728H373.242L375.33 258.532V268H370.65ZM375.33 259.036L373.242 256.768H380.802C382.866 256.768 384.414 256.336 385.446 255.472C386.502 254.584 387.03 253.348 387.03 251.764C387.03 250.156 386.502 248.92 385.446 248.056C384.414 247.192 382.866 246.76 380.802 246.76H373.242L375.33 244.456V259.036ZM398.22 268V242.8H408.588C410.82 242.8 412.728 243.16 414.312 243.88C415.92 244.6 417.156 245.632 418.02 246.976C418.884 248.32 419.316 249.916 419.316 251.764C419.316 253.612 418.884 255.208 418.02 256.552C417.156 257.896 415.92 258.928 414.312 259.648C412.728 260.368 410.82 260.728 408.588 260.728H400.812L402.9 258.532V268H398.22ZM402.9 259.036L400.812 256.768H408.372C410.436 256.768 411.984 256.336 413.016 255.472C414.072 254.584 414.6 253.348 414.6 251.764C414.6 250.156 414.072 248.92 413.016 248.056C411.984 247.192 410.436 246.76 408.372 246.76H400.812L402.9 244.456V259.036Z" fill="black"/>
<rect x="72" y="522" width="502.222" height="279" rx="16" fill="#D9D9D9" stroke="#2079BD" stroke-width="8"/>
<path d="M176.384 675L187.724 649.8H192.332L203.708 675H198.812L189.056 652.284H190.928L181.208 675H176.384ZM181.604 669.168L182.864 665.496H196.472L197.732 669.168H181.604ZM208.713 675V649.8H212.565L228.369 669.204H226.461V649.8H231.105V675H227.253L211.449 655.596H213.357V675H208.713ZM239.658 675V649.8H250.674C253.41 649.8 255.81 650.328 257.874 651.384C259.938 652.44 261.546 653.904 262.698 655.776C263.85 657.648 264.426 659.856 264.426 662.4C264.426 664.92 263.85 667.128 262.698 669.024C261.546 670.896 259.938 672.36 257.874 673.416C255.81 674.472 253.41 675 250.674 675H239.658ZM244.338 671.04H250.458C252.354 671.04 253.986 670.68 255.354 669.96C256.746 669.24 257.814 668.232 258.558 666.936C259.326 665.64 259.71 664.128 259.71 662.4C259.71 660.648 259.326 659.136 258.558 657.864C257.814 656.568 256.746 655.56 255.354 654.84C253.986 654.12 252.354 653.76 250.458 653.76H244.338V671.04ZM271.2 675V649.8H281.568C283.8 649.8 285.708 650.16 287.292 650.88C288.9 651.6 290.136 652.632 291 653.976C291.864 655.32 292.296 656.916 292.296 658.764C292.296 660.612 291.864 662.208 291 663.552C290.136 664.872 288.9 665.892 287.292 666.612C285.708 667.308 283.8 667.656 281.568 667.656H273.792L275.88 665.532V675H271.2ZM287.688 675L281.316 665.856H286.32L292.728 675H287.688ZM275.88 666.036L273.792 663.804H281.352C283.416 663.804 284.964 663.36 285.996 662.472C287.052 661.584 287.58 660.348 287.58 658.764C287.58 657.156 287.052 655.92 285.996 655.056C284.964 654.192 283.416 653.76 281.352 653.76H273.792L275.88 651.456V666.036ZM311.14 675.36C309.172 675.36 307.36 675.036 305.704 674.388C304.048 673.74 302.608 672.84 301.384 671.688C300.16 670.512 299.212 669.144 298.54 667.584C297.868 666 297.532 664.272 297.532 662.4C297.532 660.528 297.868 658.812 298.54 657.252C299.212 655.668 300.16 654.3 301.384 653.148C302.608 651.972 304.048 651.06 305.704 650.412C307.36 649.764 309.16 649.44 311.104 649.44C313.072 649.44 314.872 649.764 316.504 650.412C318.16 651.06 319.6 651.972 320.824 653.148C322.048 654.3 322.996 655.668 323.668 657.252C324.34 658.812 324.676 660.528 324.676 662.4C324.676 664.272 324.34 666 323.668 667.584C322.996 669.168 322.048 670.536 320.824 671.688C319.6 672.84 318.16 673.74 316.504 674.388C314.872 675.036 313.084 675.36 311.14 675.36ZM311.104 671.256C312.376 671.256 313.552 671.04 314.632 670.608C315.712 670.176 316.648 669.564 317.44 668.772C318.232 667.956 318.844 667.02 319.276 665.964C319.732 664.884 319.96 663.696 319.96 662.4C319.96 661.104 319.732 659.928 319.276 658.872C318.844 657.792 318.232 656.856 317.44 656.064C316.648 655.248 315.712 654.624 314.632 654.192C313.552 653.76 312.376 653.544 311.104 653.544C309.832 653.544 308.656 653.76 307.576 654.192C306.52 654.624 305.584 655.248 304.768 656.064C303.976 656.856 303.352 657.792 302.896 658.872C302.464 659.928 302.248 661.104 302.248 662.4C302.248 663.672 302.464 664.848 302.896 665.928C303.352 667.008 303.976 667.956 304.768 668.772C305.56 669.564 306.496 670.176 307.576 670.608C308.656 671.04 309.832 671.256 311.104 671.256ZM331.437 675V649.8H336.117V675H331.437ZM344.733 675V649.8H355.749C358.485 649.8 360.885 650.328 362.949 651.384C365.013 652.44 366.621 653.904 367.773 655.776C368.925 657.648 369.501 659.856 369.501 662.4C369.501 664.92 368.925 667.128 367.773 669.024C366.621 670.896 365.013 672.36 362.949 673.416C360.885 674.472 358.485 675 355.749 675H344.733ZM349.413 671.04H355.533C357.429 671.04 359.061 670.68 360.429 669.96C361.821 669.24 362.889 668.232 363.633 666.936C364.401 665.64 364.785 664.128 364.785 662.4C364.785 660.648 364.401 659.136 363.633 657.864C362.889 656.568 361.821 655.56 360.429 654.84C359.061 654.12 357.429 653.76 355.533 653.76H349.413V671.04ZM375.047 666.864V663.12H384.947V666.864H375.047ZM387.8 675L399.14 649.8H403.748L415.124 675H410.228L400.472 652.284H402.344L392.624 675H387.8ZM393.02 669.168L394.28 665.496H407.888L409.148 669.168H393.02ZM420.129 675V649.8H430.497C432.729 649.8 434.637 650.16 436.221 650.88C437.829 651.6 439.065 652.632 439.929 653.976C440.793 655.32 441.225 656.916 441.225 658.764C441.225 660.612 440.793 662.208 439.929 663.552C439.065 664.896 437.829 665.928 436.221 666.648C434.637 667.368 432.729 667.728 430.497 667.728H422.721L424.809 665.532V675H420.129ZM424.809 666.036L422.721 663.768H430.281C432.345 663.768 433.893 663.336 434.925 662.472C435.981 661.584 436.509 660.348 436.509 658.764C436.509 657.156 435.981 655.92 434.925 655.056C433.893 654.192 432.345 653.76 430.281 653.76H422.721L424.809 651.456V666.036ZM447.698 675V649.8H458.066C460.298 649.8 462.206 650.16 463.79 650.88C465.398 651.6 466.634 652.632 467.498 653.976C468.362 655.32 468.794 656.916 468.794 658.764C468.794 660.612 468.362 662.208 467.498 663.552C466.634 664.896 465.398 665.928 463.79 666.648C462.206 667.368 460.298 667.728 458.066 667.728H450.29L452.378 665.532V675H447.698ZM452.378 666.036L450.29 663.768H457.85C459.914 663.768 461.462 663.336 462.494 662.472C463.55 661.584 464.078 660.348 464.078 658.764C464.078 657.156 463.55 655.92 462.494 655.056C461.462 654.192 459.914 653.76 457.85 653.76H450.29L452.378 651.456V666.036Z" fill="black"/>
<rect x="788" y="320" width="502.222" height="279" rx="16" fill="#D9D9D9" stroke="#2079BD" stroke-width="8"/>
<path d="M1005.4 473L1016.74 447.8H1021.35L1032.73 473H1027.83L1018.08 450.284H1019.95L1010.23 473H1005.4ZM1010.62 467.168L1011.88 463.496H1025.49L1026.75 467.168H1010.62ZM1037.73 473V447.8H1048.1C1050.33 447.8 1052.24 448.16 1053.83 448.88C1055.43 449.6 1056.67 450.632 1057.53 451.976C1058.4 453.32 1058.83 454.916 1058.83 456.764C1058.83 458.612 1058.4 460.208 1057.53 461.552C1056.67 462.896 1055.43 463.928 1053.83 464.648C1052.24 465.368 1050.33 465.728 1048.1 465.728H1040.33L1042.41 463.532V473H1037.73ZM1042.41 464.036L1040.33 461.768H1047.89C1049.95 461.768 1051.5 461.336 1052.53 460.472C1053.59 459.584 1054.11 458.348 1054.11 456.764C1054.11 455.156 1053.59 453.92 1052.53 453.056C1051.5 452.192 1049.95 451.76 1047.89 451.76H1040.33L1042.41 449.456V464.036ZM1065.3 473V447.8H1069.98V473H1065.3Z" fill="black"/>
<rect x="1504" y="319" width="502.222" height="279" rx="16" fill="#D9D9D9" stroke="#2079BD" stroke-width="8"/>
<path d="M1730.02 472V446.8H1733.87L1744.89 465.196H1742.87L1753.71 446.8H1757.56L1757.59 472H1753.17L1753.13 453.748H1754.07L1744.85 469.12H1742.76L1733.4 453.748H1734.48V472H1730.02ZM1766.2 472V446.8H1770.88V468.04H1784.06V472H1766.2Z" fill="black"/>
</svg>
